<?xml version="1.0" encoding="utf-8"?>
<!-- Generator: Adobe Illustrator 17.0.0, SVG Export Plug-In . SVG Version: 6.00 Build 0)  -->
<!DOCTYPE svg PUBLIC "-//W3C//DTD SVG 1.1//EN" "http://www.w3.org/Graphics/SVG/1.1/DTD/svg11.dtd">
<svg version="1.1" id="Layer_1" xmlns="http://www.w3.org/2000/svg" xmlns:xlink="http://www.w3.org/1999/xlink" x="0px" y="0px"
	 width="2304px" height="2304px" viewBox="0 0 2304 2304" enable-background="new 0 0 2304 2304" xml:space="preserve">
<g>
	<g>
		<path fill="#707D7E" d="M629.672,110.679h294.743v1256.824H733.481V320.15h-3.707L557.377,959.684H405.372L232.975,320.15h-3.707
			v1047.354H38.334V110.679h294.742l146.444,483.822h3.707L629.672,110.679z"/>
	</g>
	<g>
		<path fill="#707D7E" d="M1081.161,1046.813h174.093L942.563,2192.779H700.863L391.553,1046.813h174.092l256.914,973.564h3.379
			L1081.161,1046.813z"/>
	</g>
	<g>
		<path fill="#C8D8DB" d="M1324.409,110.679h294.743v1256.824h-190.934V320.15h-3.707l-172.397,639.534h-152.003L927.712,320.15
			h-3.707v1047.354H733.07V110.679h294.743l146.445,483.822h3.705L1324.409,110.679z"/>
	</g>
	<g>
		<path fill="#C8D8DB" d="M2262.585,2019.071v174.25h-834.177V936.497h190.935v1082.574H2262.585z"/>
	</g>
	<g>
		<path fill="#C8D8DB" d="M1715.616,1671.492v-82.832l114.541-95.775h71.831v471.108h-66.655v-396.041L1715.616,1671.492z"/>
		<path fill="#C8D8DB" d="M2217.779,1492.885c-44.652,41.416-89.305,91.893-125.544,138.485l-31.061,40.768l0.648,1.294
			c18.766-8.411,38.18-12.295,59.534-12.295c85.422,0,144.31,72.479,144.31,154.663c0,93.187-66.655,154.017-157.251,154.017
			c-100.952,0-158.545-60.184-158.545-160.488c0-71.183,20.06-126.836,66.006-179.902l118.423-136.543H2217.779z M2016.521,1813.86
			c0,55.651,35.594,95.127,91.245,95.127c54.359,0,91.245-37.534,91.245-94.481c0-55.005-38.828-92.539-92.539-92.539
			C2054.055,1721.967,2016.521,1761.443,2016.521,1813.86z"/>
	</g>
</g>
</svg>
