<?xml version="1.0" encoding="utf-8"?>
<!-- Generator: Adobe Illustrator 15.0.0, SVG Export Plug-In . SVG Version: 6.00 Build 0)  -->
<!DOCTYPE svg PUBLIC "-//W3C//DTD SVG 1.1//EN" "http://www.w3.org/Graphics/SVG/1.1/DTD/svg11.dtd">
<svg version="1.1" id="Layer_1" xmlns="http://www.w3.org/2000/svg" xmlns:xlink="http://www.w3.org/1999/xlink" x="0px" y="0px"
	 width="2304px" height="2304px" viewBox="0 0 2304 2304" enable-background="new 0 0 2304 2304" xml:space="preserve">
<g>
	<path fill="#4366A6" d="M576.65,704.134v122.445c0,74.614-18.227,131.887-54.64,171.816
		c-36.433,39.951-90.187,59.906-161.284,59.906c-71.097,0-124.872-19.955-161.284-59.906c-36.434-39.93-54.64-97.202-54.64-171.816
		V347.333c0-74.594,18.206-131.866,54.64-171.816c36.412-39.931,90.188-59.906,161.284-59.906
		c71.098,0,124.852,19.976,161.284,59.906c36.413,39.95,54.64,97.223,54.64,171.816v89.529H439.723v-98.745
		c0-33.348-6.809-56.82-20.407-70.438c-13.618-13.598-31.825-20.407-54.639-20.407c-22.835,0-41.041,6.81-54.639,20.407
		c-13.619,13.618-20.408,37.091-20.408,70.438v497.678c0,33.367,6.789,56.613,20.408,69.779
		c13.598,13.167,31.804,19.75,54.639,19.75c22.813,0,41.021-6.583,54.639-19.75c13.599-13.166,20.407-36.412,20.407-69.779V704.134
		H576.65z"/>
	<path fill="#4366A6" d="M1341.582,704.134v122.445c0,74.614-18.228,131.887-54.641,171.816
		c-36.433,39.951-90.187,59.906-161.284,59.906c-71.097,0-124.872-19.955-161.284-59.906c-36.434-39.93-54.64-97.202-54.64-171.816
		V347.333c0-74.594,18.206-131.866,54.64-171.816c36.412-39.931,90.188-59.906,161.284-59.906
		c71.098,0,124.852,19.976,161.284,59.906c36.413,39.95,54.641,97.223,54.641,171.816v89.529h-136.928v-98.745
		c0-33.348-6.81-56.82-20.408-70.438c-13.618-13.598-31.825-20.407-54.639-20.407c-22.835,0-41.041,6.81-54.639,20.407
		c-13.619,13.618-20.408,37.091-20.408,70.438v497.678c0,33.367,6.789,56.613,20.408,69.779
		c13.598,13.167,31.804,19.75,54.639,19.75c22.813,0,41.021-6.583,54.639-19.75c13.599-13.166,20.408-36.412,20.408-69.779V704.134
		H1341.582z"/>
	<path fill="#4366A6" d="M2155.227,1047.769h-146.144l-25.016-167.209h-177.742l-25.016,167.209h-132.978l147.461-921.625h211.974
		L2155.227,1047.769z M1824.759,755.481h139.56l-69.78-466.079L1824.759,755.481z"/>
	<path fill="#383840" d="M443.673,1482.688c0-41.246-6.81-69.121-20.407-83.604c-13.619-14.482-31.825-21.724-54.64-21.724
		c-22.834,0-41.041,6.81-54.639,20.407c-13.619,13.618-20.408,37.091-20.408,70.438v98.745H156.652v-89.529
		c0-74.594,18.206-131.865,54.64-171.816c36.412-39.931,90.188-59.906,161.284-59.906s124.852,19.976,161.284,59.906
		c36.413,39.951,54.639,97.223,54.639,171.816c0,48.282-7.034,91.957-21.064,131.002c-14.052,39.066-31.825,74.616-53.323,106.646
		c-21.519,32.052-44.765,61.675-69.78,88.872c-25.016,27.217-48.282,53.116-69.779,77.68
		c-21.519,24.583-39.294,48.508-53.323,71.755c-14.051,23.267-21.065,47.624-21.065,73.072c0,8.784,0.432,15.366,1.316,19.748
		h273.854v131.661H156.652v-113.229c0-44.765,7.016-84.263,21.065-118.494c14.03-34.231,31.805-65.604,53.323-94.138
		c21.497-28.514,44.538-55.298,69.122-80.313c24.563-25.015,47.604-51.553,69.121-79.654c21.498-28.08,39.271-58.795,53.323-92.162
		C436.638,1566.519,443.673,1527.452,443.673,1482.688z"/>
	<path fill="#383840" d="M745.171,1477.421c0-74.594,18.864-131.865,56.613-171.816c37.729-39.931,92.163-59.906,163.26-59.906
		s125.51,19.976,163.26,59.906c37.729,39.951,56.614,97.223,56.614,171.816v479.245c0,74.615-18.886,131.888-56.614,171.817
		c-37.75,39.951-92.163,59.906-163.26,59.906s-125.53-19.955-163.26-59.906c-37.749-39.93-56.613-97.202-56.613-171.817V1477.421z
		 M889.998,1965.882c0,33.368,6.788,56.841,20.407,70.438c13.598,13.62,31.804,20.409,54.639,20.409
		c22.814,0,41.021-6.789,54.64-20.409c13.598-13.598,20.407-37.07,20.407-70.438v-497.677c0-33.348-6.81-56.82-20.407-70.438
		c-13.618-13.598-31.825-20.407-54.64-20.407c-22.835,0-41.041,6.81-54.639,20.407c-13.619,13.618-20.407,37.091-20.407,70.438
		V1965.882z"/>
	<path fill="#383840" d="M1302.091,1372.093c28.081,0,51.121-3.064,69.122-9.216c17.979-6.131,32.688-14.483,44.106-25.016
		c11.397-10.533,20.613-22.814,27.648-36.865c7.016-14.03,13.166-28.966,18.432-44.765h97.43v921.625h-144.826v-703.068h-111.912
		V1372.093z"/>
	<path fill="#383840" d="M2159.197,1256.231v126.395l-213.291,795.23H1801.08l211.973-789.965h-288.337v-131.66H2159.197z"/>
</g>
</svg>
